<svg xmlns="http://www.w3.org/2000/svg" viewBox="0 0 1536 1024" width="1536" height="1024">
  <path fill="#ffffff" fill-rule="evenodd" d="M 557 276 L 558 492 L 563 529 L 572 559 L 567 560 L 560 557 L 556 557 L 563 602 L 571 630 L 624 658 L 674 692 L 706 711 L 765 743 L 770 743 L 847 700 L 907 660 L 960 632 L 964 628 L 972 596 L 977 562 L 977 556 L 966 560 L 962 559 L 962 555 L 965 550 L 970 533 L 976 495 L 976 275 L 885 257 L 820 242 L 766 232 Z M 872 668 L 871 671 L 855 681 L 770 728 L 765 728 L 723 706 L 673 677 L 665 671 L 665 669 L 668 668 L 672 670 L 716 678 L 754 681 L 780 681 L 818 678 L 852 672 L 869 667 Z M 571 284 L 665 266 L 766 244 L 811 252 L 901 272 L 963 284 L 964 482 L 961 517 L 955 544 L 947 563 L 895 580 L 892 582 L 883 595 L 883 597 L 886 597 L 913 586 L 965 569 L 966 576 L 964 582 L 964 589 L 956 622 L 947 629 L 925 640 L 885 655 L 840 665 L 797 670 L 738 670 L 697 666 L 675 662 L 632 650 L 603 637 L 581 625 L 577 619 L 574 608 L 568 575 L 569 569 L 646 596 L 649 596 L 649 593 L 640 581 L 586 563 L 578 541 L 574 524 L 570 488 Z M 760 628 L 760 653 L 778 652 L 781 649 L 781 643 L 778 641 L 780 637 L 780 632 L 775 628 Z M 765 643 L 774 642 L 776 644 L 776 647 L 773 649 L 766 649 Z M 765 633 L 767 631 L 772 631 L 776 634 L 776 636 L 774 638 L 766 638 Z M 802 626 L 796 630 L 795 636 L 797 639 L 809 642 L 810 646 L 807 648 L 796 646 L 796 649 L 801 652 L 809 652 L 815 648 L 815 641 L 810 637 L 801 636 L 800 633 L 803 630 L 812 631 L 812 628 L 808 626 Z M 712 626 L 711 651 L 736 652 L 739 647 L 747 647 L 751 653 L 755 653 L 755 649 L 747 628 L 740 629 L 733 647 L 730 648 L 716 645 L 717 626 Z M 836 623 L 832 624 L 828 632 L 826 632 L 821 625 L 817 625 L 818 629 L 825 638 L 827 649 L 832 648 L 831 637 L 834 632 Z M 700 624 L 683 622 L 679 645 L 685 646 L 686 637 L 697 638 L 697 634 L 688 633 L 687 629 L 689 627 L 700 628 Z M 846 620 L 841 626 L 842 631 L 847 634 L 855 635 L 856 639 L 854 641 L 848 641 L 847 639 L 844 639 L 842 643 L 846 645 L 855 645 L 860 642 L 862 638 L 861 632 L 857 630 L 848 629 L 846 625 L 849 623 L 857 625 L 858 621 L 853 619 Z M 662 616 L 658 641 L 674 644 L 673 639 L 668 639 L 664 637 L 667 617 Z M 881 613 L 862 617 L 862 621 L 868 621 L 870 623 L 873 640 L 878 639 L 875 619 L 881 617 Z M 638 610 L 630 617 L 629 628 L 633 634 L 639 637 L 645 637 L 650 635 L 655 626 L 655 620 L 650 613 L 644 610 Z M 638 615 L 644 615 L 650 621 L 649 628 L 644 632 L 639 632 L 634 627 L 634 620 Z M 904 607 L 898 607 L 886 611 L 891 634 L 896 634 L 908 630 L 908 626 L 898 629 L 895 628 L 895 623 L 904 621 L 904 617 L 893 617 L 894 612 L 904 610 Z M 937 595 L 931 597 L 930 602 L 924 603 L 923 607 L 921 607 L 918 602 L 913 602 L 910 604 L 915 627 L 920 627 L 918 623 L 918 613 L 920 613 L 928 623 L 930 623 L 933 608 L 936 609 L 939 620 L 944 619 Z M 591 594 L 596 621 L 602 622 L 606 615 L 610 613 L 612 619 L 612 627 L 615 629 L 619 629 L 628 609 L 628 606 L 623 606 L 621 614 L 617 616 L 615 614 L 614 601 L 612 599 L 609 599 L 603 610 L 600 611 L 598 608 L 597 595 Z M 881 282 L 879 282 L 855 302 L 807 338 L 728 338 L 656 283 L 654 283 L 653 285 L 644 404 L 620 466 L 648 478 L 648 540 L 747 598 L 748 601 L 746 602 L 746 604 L 748 604 L 749 601 L 752 601 L 766 610 L 769 610 L 855 560 L 888 539 L 889 491 L 847 510 L 844 509 L 843 505 L 844 496 L 915 466 L 914 459 L 907 444 L 892 403 Z M 767 569 L 770 570 L 775 584 L 775 587 L 769 593 L 766 593 L 761 588 L 762 581 Z M 726 357 L 810 357 L 877 410 L 893 455 L 887 459 L 826 485 L 828 525 L 830 538 L 869 519 L 873 520 L 873 531 L 860 539 L 851 542 L 849 545 L 796 574 L 790 579 L 787 578 L 780 559 L 825 541 L 807 450 L 810 447 L 824 440 L 835 427 L 839 419 L 793 432 L 786 452 L 786 461 L 803 530 L 781 544 L 775 546 L 774 542 L 776 536 L 787 514 L 787 511 L 749 511 L 749 514 L 763 543 L 763 545 L 760 546 L 731 530 L 750 459 L 744 434 L 742 431 L 738 429 L 697 418 L 698 422 L 715 442 L 729 449 L 718 501 L 715 502 L 709 490 L 704 486 L 680 474 L 678 474 L 678 493 L 699 506 L 705 527 L 712 543 L 753 557 L 755 559 L 755 563 L 748 578 L 743 577 L 664 530 L 663 465 L 645 458 L 643 456 L 644 449 L 649 439 L 658 412 Z M 672 317 L 710 346 L 710 348 L 668 381 L 665 381 L 664 371 L 668 321 L 669 318 Z M 863 316 L 865 316 L 867 320 L 867 332 L 871 367 L 870 380 L 866 379 L 826 348 L 826 345 Z M 686 292 L 686 294 L 700 303 L 749 295 L 789 295 L 813 298 L 832 303 L 838 303 L 845 297 L 851 299 L 851 297 L 849 296 L 849 292 L 819 286 L 785 282 L 753 282 L 730 284 Z "/>
</svg>
